<?xml version="1.0" encoding="UTF-8" standalone="no"?>
<svg
   xmlns:dc="http://purl.org/dc/elements/1.1/"
   xmlns:cc="http://creativecommons.org/ns#"
   xmlns:rdf="http://www.w3.org/1999/02/22-rdf-syntax-ns#"
   xmlns:svg="http://www.w3.org/2000/svg"
   xmlns="http://www.w3.org/2000/svg"
   xmlns:sodipodi="http://sodipodi.sourceforge.net/DTD/sodipodi-0.dtd"
   xmlns:inkscape="http://www.inkscape.org/namespaces/inkscape"
   version="1.1"
   id="svg10"
   width="480.27811"
   height="483.40097"
   viewBox="0 0 480.27811 483.40097"
   sodipodi:docname="img.svg"
   inkscape:version="1.0.1 (3bc2e813f5, 2020-09-07)">
  <metadata
     id="metadata16">
    <rdf:RDF>
      <cc:Work
         rdf:about="">
        <dc:format>image/svg+xml</dc:format>
        <dc:type
           rdf:resource="http://purl.org/dc/dcmitype/StillImage" />
        <dc:title></dc:title>
      </cc:Work>
    </rdf:RDF>
  </metadata>
  <defs
     id="defs14" />
  <sodipodi:namedview
     pagecolor="#ffffff"
     bordercolor="#666666"
     borderopacity="1"
     objecttolerance="10"
     gridtolerance="10"
     guidetolerance="10"
     inkscape:pageopacity="0"
     inkscape:pageshadow="2"
     inkscape:window-width="1366"
     inkscape:window-height="705"
     id="namedview12"
     showgrid="false"
     inkscape:snap-global="false"
     inkscape:zoom="0.66245342"
     inkscape:cx="449.33994"
     inkscape:cy="295.73309"
     inkscape:window-x="-8"
     inkscape:window-y="-8"
     inkscape:window-maximized="1"
     inkscape:current-layer="g18" />
  <g
     inkscape:groupmode="layer"
     inkscape:label="Image"
     id="g18"
     transform="translate(-250.3482,-448.60496)">
    <g
       id="g1164">
      <path
         style="font-variation-settings:normal;opacity:1;vector-effect:none;fill:#564c6e;fill-opacity:1;stroke:#564c6e;stroke-width:1.056;stroke-linecap:butt;stroke-linejoin:round;stroke-miterlimit:4;stroke-dasharray:none;stroke-dashoffset:0;stroke-opacity:1;stop-color:#000000;stop-opacity:1"
         d="M 479.3457,931.47794 547.37936,757.31178 730.09832,742.92752 651.9568,926.42401 Z"
         id="path855" />
      <path
         style="font-variation-settings:normal;opacity:1;vector-effect:none;fill:#3b2e59;fill-opacity:1;stroke:#3b2e59;stroke-width:1.056;stroke-linecap:butt;stroke-linejoin:round;stroke-miterlimit:4;stroke-dasharray:none;stroke-dashoffset:0;stroke-opacity:1;stop-color:#000000;stop-opacity:1"
         d="m 479.3457,931.47794 h -15.55055 l 69.19995,-174.94369 14.38426,0.77753"
         id="path857" />
      <path
         style="font-variation-settings:normal;opacity:1;vector-effect:none;fill:#3b2e59;fill-opacity:1;stroke:#3b2e59;stroke-width:1.056;stroke-linecap:butt;stroke-linejoin:round;stroke-miterlimit:4;stroke-dasharray:none;stroke-dashoffset:0;stroke-opacity:1;stop-color:#000000;stop-opacity:1"
         d="m 465.79515,931.47794 -66.86736,-1.16629 c -6.26984,-4.92434 -3.67721,-16.45767 0,-20.60448 l 76.58645,-4.66517"
         id="path859"
         sodipodi:nodetypes="cccc" />
      <path
         style="font-variation-settings:normal;opacity:1;vector-effect:none;fill:none;fill-opacity:1;stroke:#965350;stroke-width:1.056;stroke-linecap:butt;stroke-linejoin:round;stroke-miterlimit:4;stroke-dasharray:none;stroke-dashoffset:0;stroke-opacity:1;stop-color:#000000;stop-opacity:1"
         d="m 428.80641,907.76335 c -16.35132,-47.82829 37.91102,-68.38783 61.81344,-45.87412"
         id="path861"
         sodipodi:nodetypes="cc" />
      <path
         style="font-variation-settings:normal;opacity:1;vector-effect:none;fill:none;fill-opacity:1;stroke:#965350;stroke-width:1.056;stroke-linecap:butt;stroke-linejoin:round;stroke-miterlimit:4;stroke-dasharray:none;stroke-dashoffset:0;stroke-opacity:1;stop-color:#000000;stop-opacity:1"
         d="M 434.57198,866.29741 H 418.14943"
         id="path865"
         sodipodi:nodetypes="cc" />
      <g
         id="g1024"
         transform="translate(-2)">
        <path
           style="font-variation-settings:normal;opacity:1;vector-effect:none;fill:none;fill-opacity:1;stroke:#d8d3ff;stroke-width:1.056;stroke-linecap:butt;stroke-linejoin:round;stroke-miterlimit:4;stroke-dasharray:none;stroke-dashoffset:0;stroke-opacity:1;stop-color:#000000;stop-opacity:1"
           d="m 428.80641,907.76335 c -18.81041,-6.79859 -22.01712,-29.77416 0,-52.48311 4.28427,0.6322 7.50778,3.38592 10.10786,7.38651"
           id="path863"
           sodipodi:nodetypes="ccc" />
        <path
           style="font-variation-settings:normal;opacity:1;vector-effect:none;fill:none;fill-opacity:1;stroke:#d8d3ff;stroke-width:1.056;stroke-linecap:butt;stroke-linejoin:round;stroke-miterlimit:4;stroke-dasharray:none;stroke-dashoffset:0;stroke-opacity:1;stop-color:#000000;stop-opacity:1"
           d="m 428.80641,855.28024 c -27.20566,-8.30669 -72.06406,-13.78492 -108.09609,-9.54118"
           id="path867"
           sodipodi:nodetypes="cc" />
        <path
           style="font-variation-settings:normal;opacity:1;vector-effect:none;fill:none;fill-opacity:1;stroke:#d8d3ff;stroke-width:1.056;stroke-linecap:butt;stroke-linejoin:round;stroke-miterlimit:4;stroke-dasharray:none;stroke-dashoffset:0;stroke-opacity:1;stop-color:#000000;stop-opacity:1"
           d="m 396.5693,915.32118 c -43.60909,2.46828 -88.5306,3.02356 -122.98505,-9.48847 -40.75139,-12.22315 -13.72506,-231.26666 15.81412,-257.77013 22.56148,-11.28451 49.53614,-15.53106 72.09761,-11.69612"
           id="path869"
           sodipodi:nodetypes="cccc" />
        <path
           style="font-variation-settings:normal;opacity:1;vector-effect:none;fill:#f0f1ff;fill-opacity:1;stroke:#d8d3ff;stroke-width:1.056;stroke-linecap:butt;stroke-linejoin:round;stroke-miterlimit:4;stroke-dasharray:none;stroke-dashoffset:0;stroke-opacity:1;stop-color:#000000;stop-opacity:1"
           d="M 428.80641,855.28024 C 423.89737,807.87712 401.3846,698.6758 361.49598,636.36646 c -20.3963,15.92744 -29.63709,37.11085 -31.76803,51.45992 l 29.63139,15.13092 -5.6741,21.43547 c 40.94788,5.13384 59.47292,112.22099 61.78459,126.72145"
           id="path871"
           sodipodi:nodetypes="cccccc" />
        <path
           style="font-variation-settings:normal;opacity:1;vector-effect:none;fill:none;fill-opacity:1;stroke:#d8d3ff;stroke-width:1.056;stroke-linecap:butt;stroke-linejoin:round;stroke-miterlimit:4;stroke-dasharray:none;stroke-dashoffset:0;stroke-opacity:1;stop-color:#000000;stop-opacity:1"
           d="M 340.44569,844.17922 326.57568,737.63232"
           id="path873" />
      </g>
      <path
         style="font-variation-settings:normal;opacity:1;vector-effect:none;fill:none;fill-opacity:1;stroke:#8a4946;stroke-width:1.056;stroke-linecap:butt;stroke-linejoin:round;stroke-miterlimit:4;stroke-dasharray:none;stroke-dashoffset:0;stroke-opacity:1;stop-color:#000000;stop-opacity:1"
         d="m 430.60075,622.25906 c 27.38834,36.83975 74.95546,-13.30281 37.19684,-34.67502"
         id="path879"
         sodipodi:nodetypes="cc" />
      <path
         style="font-variation-settings:normal;opacity:1;vector-effect:none;fill:none;fill-opacity:1;stroke:#d9d4ff;stroke-width:1.056;stroke-linecap:butt;stroke-linejoin:round;stroke-miterlimit:4;stroke-dasharray:none;stroke-dashoffset:0;stroke-opacity:0.870588;stop-color:#000000;stop-opacity:1"
         d="m 462.1235,649.99908 c -10.5035,5.90975 -8.3825,9.45241 -7.56546,13.23956 25.38218,-1.64391 53.05789,-19.47788 52.32776,-32.15321 -3.33587,-6.54202 -9.04248,-4.39131 -14.50046,-3.15227"
         id="path883"
         sodipodi:nodetypes="cccc" />
      <path
         style="font-variation-settings:normal;opacity:1;vector-effect:none;fill:none;fill-opacity:1;stroke:#965350;stroke-width:1.056;stroke-linecap:butt;stroke-linejoin:round;stroke-miterlimit:4;stroke-dasharray:none;stroke-dashoffset:0;stroke-opacity:1;stop-color:#000000;stop-opacity:1"
         d="m 466.79173,661.38002 -4.66823,-11.38094 -6.34101,-14.21554"
         id="path885" />
      <path
         style="font-variation-settings:normal;opacity:1;vector-effect:none;fill:none;fill-opacity:1;stroke:#965350;stroke-width:1.056;stroke-linecap:butt;stroke-linejoin:round;stroke-miterlimit:4;stroke-dasharray:none;stroke-dashoffset:0;stroke-opacity:1;stop-color:#000000;stop-opacity:1"
         d="m 502.29652,641.56339 -9.91118,-13.63023 -11.00637,-14.99379"
         id="path887" />
      <path
         style="font-variation-settings:normal;opacity:1;vector-effect:none;fill:none;fill-opacity:1;stroke:#d9d4ff;stroke-width:1.056;stroke-linecap:butt;stroke-linejoin:round;stroke-miterlimit:4;stroke-dasharray:none;stroke-dashoffset:0;stroke-opacity:0.870588;stop-color:#000000;stop-opacity:1"
         d="m 506.8858,631.08543 c 17.56139,38.72222 26.20674,82.3986 33.94306,116.16666"
         id="path889"
         sodipodi:nodetypes="cc" />
      <path
         style="font-variation-settings:normal;opacity:1;vector-effect:none;fill:none;fill-opacity:1;stroke:#d8d3ff;stroke-width:1.056;stroke-linecap:butt;stroke-linejoin:round;stroke-miterlimit:4;stroke-dasharray:none;stroke-dashoffset:0;stroke-opacity:0.980392;stop-color:#000000;stop-opacity:1"
         d="m 514.13145,647.89371 c 37.25411,29.18328 39.89219,77.48564 42.6608,108.441"
         id="path891"
         sodipodi:nodetypes="cc" />
      <path
         style="font-variation-settings:normal;opacity:1;vector-effect:none;fill:none;fill-opacity:1;stroke:#d8d3ff;stroke-width:1.056;stroke-linecap:butt;stroke-linejoin:round;stroke-miterlimit:4;stroke-dasharray:none;stroke-dashoffset:0;stroke-opacity:0.886275;stop-color:#000000;stop-opacity:1"
         d="m 454.55804,663.23864 35.18794,127.69384 c 5.531,11.05945 13.4882,16.0534 22.88872,17.43903"
         id="path893"
         sodipodi:nodetypes="ccc" />
      <path
         style="font-variation-settings:normal;opacity:1;vector-effect:none;fill:none;fill-opacity:1;stroke:#d9d4ff;stroke-width:1.056;stroke-linecap:butt;stroke-linejoin:round;stroke-miterlimit:4;stroke-dasharray:none;stroke-dashoffset:0;stroke-opacity:0.839216;stop-color:#000000;stop-opacity:1"
         d="m 474.48683,736.43553 c -24.25144,34.64072 -32.97275,89.28092 -35.57256,126.23122"
         id="path895"
         sodipodi:nodetypes="cc" />
      <path
         style="font-variation-settings:normal;opacity:1;vector-effect:none;fill:none;fill-opacity:1;stroke:#e1dfff;stroke-width:1.056;stroke-linecap:butt;stroke-linejoin:round;stroke-miterlimit:4;stroke-dasharray:none;stroke-dashoffset:0;stroke-opacity:0.992157;stop-color:#000000;stop-opacity:1"
         d="m 428.80641,855.28024 c 4.20389,-45.42757 8.97245,-104.8455 34.41771,-160.2624"
         id="path897"
         sodipodi:nodetypes="cc" />
      <path
         style="font-variation-settings:normal;opacity:1;vector-effect:none;fill:#6300d2;fill-opacity:1;stroke:#6300d2;stroke-width:1.056;stroke-linecap:butt;stroke-linejoin:round;stroke-miterlimit:4;stroke-dasharray:none;stroke-dashoffset:0;stroke-opacity:1;stop-color:#000000;stop-opacity:1"
         d="m 415.63012,655.41672 h 11.62601 l 13.8059,13.8059 -17.80235,21.07215 -20.70883,-18.16565 z"
         id="path903"
         sodipodi:nodetypes="cccccc" />
      <path
         style="font-variation-settings:normal;opacity:1;vector-effect:none;fill:none;fill-opacity:1;stroke:#7800ff;stroke-width:1.11256;stroke-linecap:butt;stroke-linejoin:round;stroke-miterlimit:4;stroke-dasharray:none;stroke-dashoffset:0;stroke-opacity:1;stop-color:#000000;stop-opacity:1"
         d="m 413.06254,681.58953 -18.36897,31.39431"
         id="path905" />
      <path
         style="font-variation-settings:normal;opacity:1;vector-effect:none;fill:none;fill-opacity:1;stroke:#7800ff;stroke-width:1.10875;stroke-linecap:butt;stroke-linejoin:round;stroke-miterlimit:4;stroke-dasharray:none;stroke-dashoffset:0;stroke-opacity:0.823529;stop-color:#000000;stop-opacity:1"
         d="m 433.19774,678.60842 22.92814,32.58892"
         id="path907" />
      <path
         style="font-variation-settings:normal;opacity:1;vector-effect:none;fill:none;fill-opacity:1;stroke:#772f2b;stroke-width:1.056;stroke-linecap:butt;stroke-linejoin:round;stroke-miterlimit:4;stroke-dasharray:none;stroke-dashoffset:0;stroke-opacity:1;stop-color:#000000;stop-opacity:1"
         d="m 455.78249,635.78354 -28.52636,19.63318"
         id="path909" />
      <path
         style="font-variation-settings:normal;opacity:1;vector-effect:none;fill:none;fill-opacity:1;stroke:#772f2b;stroke-width:1.056;stroke-linecap:butt;stroke-linejoin:round;stroke-miterlimit:4;stroke-dasharray:none;stroke-dashoffset:0;stroke-opacity:1;stop-color:#000000;stop-opacity:1"
         d="m 412.3603,658.68654 c -19.32271,-5.36915 -31.96644,-18.75308 -46.86738,-29.42836"
         id="path911"
         sodipodi:nodetypes="cc" />
      <path
         style="fill:#f0f1ff;fill-opacity:1;stroke:#d7d9ff;stroke-width:0.0871361;stroke-miterlimit:4;stroke-dasharray:none;stroke-opacity:1"
         d="m 323.99504,914.98801 c -20.95119,-1.64917 -44.52758,-6.3782 -53.23775,-10.67858 -13.00136,-6.41903 -18.7319,-30.20913 -18.62128,-77.30546 0.14338,-61.03796 12.75965,-135.29302 28.37867,-167.02709 4.32588,-8.78915 7.56101,-11.67499 17.24838,-15.38611 15.80068,-6.05305 28.53273,-8.4223 45.15596,-8.40286 14.78364,0.0173 14.8442,0.054 9.08091,5.50304 -10.01154,9.46565 -18.85562,23.59005 -22.73596,36.31037 -3.46883,11.37136 -4.78069,9.42796 12.05344,17.85605 8.15475,4.0827 14.81788,7.715 14.80698,8.07177 -0.0109,0.35677 -1.18689,4.96191 -2.6133,10.23364 -1.42642,5.27173 -2.59384,9.86394 -2.59426,10.20491 -4.3e-4,0.34096 1.6657,1.0592 3.7025,1.59608 5.72713,1.50964 10.3435,4.58491 16.06699,10.70333 13.17577,14.08495 24.39149,39.40115 33.68055,76.02397 3.1092,12.2583 8.56991,37.85106 8.07324,37.837 -0.0512,-0.002 -4.01426,-0.7556 -8.80675,-1.67588 -14.84565,-2.85077 -30.6839,-4.55461 -47.90244,-5.15324 l -16.53346,-0.57481 -6.84757,-52.71683 c -3.76616,-28.99426 -7.01116,-52.88043 -7.21111,-53.08038 -1.45621,-1.45621 -0.65084,6.52222 5.21288,51.64133 3.64244,28.02727 6.62262,51.72924 6.62262,52.67103 0,1.55392 -0.84654,1.77006 -9.14928,2.33598 -5.03211,0.34298 -9.14929,0.87997 -9.1493,1.19328 -1e-5,0.31332 11.46928,0.56967 25.4873,0.56967 24.91417,0 33.527,0.59128 51.62812,3.54431 8.15424,1.33028 27.37573,5.51066 28.5663,6.21273 0.37552,0.22143 -0.4087,1.64931 -1.74272,3.17306 -7.58713,8.66619 -11.58434,18.27703 -11.55564,27.78424 0.0237,7.83971 1.7789,12.0023 7.13417,16.91904 l 3.93094,3.60902 -3.14589,0.52035 c -1.73022,0.28619 -5.10643,0.52807 -7.50267,0.53752 -2.39624,0.009 -6.43525,0.26677 -8.97558,0.57186 -4.0072,0.48126 -4.81484,0.91292 -6.09952,3.26003 -1.1078,2.02395 -2.13915,2.73808 -4.09483,2.83537 -14.12553,0.70271 -60.53317,0.89446 -68.31064,0.28226 z"
         id="path1026" />
      <path
         style="fill:#f0f1ff;fill-opacity:1;stroke:#d8d3ff;stroke-width:0.0374712;stroke-miterlimit:4;stroke-dasharray:none;stroke-opacity:0.980392"
         d="m 488.68585,859.28907 c -2.56291,-2.04545 -8.70223,-4.99812 -12.55286,-6.03722 -2.79035,-0.75298 -4.04411,-0.85821 -10.11722,-0.84914 -5.90105,0.009 -7.425,0.1344 -10.24542,0.84427 -4.36448,1.09851 -9.66265,3.33943 -13.00067,5.49879 -1.48174,0.95853 -2.76991,1.66694 -2.86261,1.57424 -0.51907,-0.51908 2.25286,-24.2088 4.20299,-35.91988 5.64626,-33.90747 14.54757,-60.89174 26.73564,-81.04898 1.49536,-2.4731 2.91734,-4.70081 3.15996,-4.95048 0.34001,-0.34989 2.10652,5.61984 7.70629,26.04248 5.05943,18.45201 7.60271,27.12214 8.37696,28.55735 4.08274,7.56812 10.91139,13.18022 18.46379,15.1744 1.43873,0.37989 2.67416,0.73443 2.74541,0.78788 0.18742,0.14058 -20.30873,51.86437 -20.54263,51.84109 -0.10784,-0.0107 -1.03918,-0.69239 -2.06963,-1.5148 z"
         id="path1028" />
      <path
         style="fill:#f0f1ff;fill-opacity:1;stroke:#d8d3ff;stroke-width:0.0374712;stroke-miterlimit:4;stroke-dasharray:none;stroke-opacity:0.980392"
         d="m 435.18531,859.49369 c -1.39683,-1.50719 -3.20515,-3.04709 -4.01849,-3.42199 -1.80914,-0.83392 -1.77192,0.0194 -0.56085,-12.85979 5.13524,-54.61088 11.04255,-86.70785 21.94277,-119.22454 3.52221,-10.50718 10.41922,-27.72054 10.70443,-26.71581 0.0569,0.2006 2.47543,8.99598 5.37441,19.54528 l 5.27088,19.18056 -2.02326,3.11481 c -7.16955,11.03754 -12.71516,23.05107 -18.04317,39.08716 -7.6535,23.03532 -12.63983,49.28158 -15.35848,80.84163 -0.13747,1.59583 -0.36213,2.96711 -0.49924,3.04728 -0.13712,0.0802 -1.39217,-1.0874 -2.789,-2.59459 z"
         id="path1030" />
      <path
         style="fill:#f0f1ff;fill-opacity:1;stroke:#d8d3ff;stroke-width:0.0374712;stroke-miterlimit:4;stroke-dasharray:none;stroke-opacity:0.980392"
         d="m 509.45103,807.04383 c -7.29098,-1.77027 -13.67935,-6.88048 -18.03128,-14.42366 -0.62546,-1.0841 -2.86511,-8.55443 -6.23493,-20.79652 -2.89236,-10.50758 -8.6519,-31.41399 -12.79897,-46.45867 -13.97405,-50.69489 -16.86202,-61.21576 -16.86202,-61.42836 0,-0.11648 0.48377,-0.21178 1.07505,-0.21178 0.59128,0 2.57257,-0.25704 4.40287,-0.5712 15.31978,-2.62955 30.53892,-9.9415 39.71133,-19.07909 3.13905,-3.12713 4.03895,-4.29461 5.28272,-6.85352 1.74994,-3.6003 1.18115,-4.14017 4.63131,4.3958 9.46141,23.40825 16.47886,47.77102 26.01161,90.30561 1.77827,7.93452 3.35116,14.71723 3.4953,15.07267 0.18237,0.44969 0.42522,0.54416 0.79842,0.3106 0.44986,-0.28153 0.007,-2.68174 -2.74496,-14.88531 -7.39919,-32.80891 -12.55801,-52.2326 -18.91689,-71.22486 -2.01832,-6.02818 -3.52796,-10.96033 -3.35476,-10.96033 0.1732,0 2.64292,2.31853 5.48827,5.15229 16.20293,16.13695 25.81406,36.89763 30.78233,66.4919 1.53257,9.12899 4.16234,33.37269 3.67308,33.86195 -0.56402,0.56402 -9.08158,0.88319 -14.44257,0.54119 -3.24065,-0.20673 -6.58157,-0.37648 -7.42428,-0.37721 l -1.53218,-0.001 -10.2352,25.85513 c -5.62935,14.22032 -10.33572,25.84108 -10.45859,25.82391 -0.12288,-0.0172 -1.16492,-0.25982 -2.31566,-0.53922 z"
         id="path1032" />
      <path
         style="fill:#f0f1ff;fill-opacity:1;stroke:#e1ddff;stroke-width:0.0374712;stroke-miterlimit:4;stroke-dasharray:none;stroke-opacity:0.980392"
         d="m 419.55147,865.40118 c 0,-0.37002 1.52902,-2.40444 4.40863,-5.86588 3.08173,-3.7044 3.37088,-3.81016 6.35332,-2.32395 1.71825,0.85624 3.09975,2.11983 5.59568,5.11807 l 0.80707,0.9695 -1.19962,1.16273 -1.19963,1.16272 h -7.38272 c -4.0605,0 -7.38273,-0.10044 -7.38273,-0.22319 z"
         id="path1034" />
      <path
         style="fill:#f0f1ff;fill-opacity:1;stroke:#e1ddff;stroke-width:0.0374712;stroke-miterlimit:4;stroke-dasharray:none;stroke-opacity:0.980392"
         d="m 454.88216,661.73754 c -0.13389,-0.34891 -0.25506,-1.43008 -0.26927,-2.4026 -0.0335,-2.28925 1.40846,-4.4092 4.48357,-6.59193 1.22947,-0.87268 2.33907,-1.59249 2.46577,-1.59957 0.1267,-0.007 1.10391,2.12236 2.17158,4.73209 1.39327,3.40559 1.81566,4.82256 1.49641,5.01987 -0.51322,0.31719 -7.68371,1.47653 -9.1323,1.47653 -0.56788,0 -1.07358,-0.26388 -1.21576,-0.63439 z"
         id="path1036" />
      <path
         style="fill:#f0f1ff;fill-opacity:1;stroke:#e1ddff;stroke-width:0.0374712;stroke-miterlimit:4;stroke-dasharray:none;stroke-opacity:0.980392"
         d="m 497.96655,634.36805 c -2.31491,-3.22205 -4.15163,-5.91558 -4.08159,-5.98561 0.07,-0.07 1.35428,-0.38317 2.85387,-0.69584 3.94646,-0.82286 5.77867,-0.46331 7.7786,1.52647 1.33185,1.32508 1.59253,1.82425 1.59253,3.04948 0,1.79897 -2.98382,8.08614 -3.78843,7.98257 -0.0803,-0.0103 -2.04007,-2.65503 -4.35498,-5.87707 z"
         id="path1038" />
      <path
         style="fill:#965350;fill-opacity:1;stroke:#965450;stroke-width:0.0374712;stroke-miterlimit:4;stroke-dasharray:none;stroke-opacity:1"
         d="m 407.17283,626.86621 c -16.58836,-2.12919 -29.73539,-10.9945 -38.17473,-25.74199 -7.35645,-12.85517 -11.94418,-30.3962 -16.33851,-62.46976 -0.73414,-5.35838 -1.42641,-10.35154 -1.53838,-11.09592 -0.19946,-1.32606 -0.17458,-1.35805 1.23092,-1.58279 0.78896,-0.12616 2.52821,-0.67339 3.86499,-1.21607 9.11431,-3.70001 16.33772,-10.89319 24.3427,-24.24083 l 3.09518,-5.16095 1.54801,1.25466 c 6.308,5.11261 14.13571,8.70253 22.80811,10.46018 3.71844,0.75362 5.31206,0.85478 13.40077,0.8507 11.40538,-0.006 16.17044,-0.68063 34.28615,-4.85582 11.35145,-2.61622 11.36685,-2.61857 12.20059,-1.86405 0.9739,0.88137 4.21048,7.57854 5.35288,11.07625 2.56095,7.84089 3.63609,16.2947 3.64022,28.62292 0.004,13.14562 -1.01265,23.85548 -3.98539,41.96775 -1.40499,8.56028 -1.02974,7.68124 -3.28005,7.6838 -2.34796,0.003 -8.40412,0.88886 -11.59637,1.69686 -1.28253,0.32463 -4.10239,1.44401 -6.26636,2.48752 -3.48272,1.67944 -4.32294,2.29018 -7.31779,5.31913 -2.80138,2.83328 -3.68725,4.03413 -5.15034,6.98161 -2.07726,4.18475 -3.45357,8.76731 -4.29078,14.28658 l -0.60403,3.98199 -3.59035,0.61861 c -1.97469,0.34024 -4.855,0.77736 -6.40068,0.97138 -3.37559,0.42371 -13.83843,0.40443 -17.23676,-0.0318 z"
         id="path1044" />
      <path
         style="fill:#000000;fill-opacity:1;stroke:#965450;stroke-width:0.0374712;stroke-miterlimit:4;stroke-dasharray:none;stroke-opacity:1"
         d="m 349.90063,522.50346 c -3.17967,-26.79361 0.36467,-44.72028 10.99674,-55.61965 5.39194,-5.52749 12.14871,-9.12268 21.56802,-11.47607 8.24719,-2.06053 22.86274,-2.70794 38.08394,-1.68697 l 6.60813,0.44324 1.26083,-0.94674 c 0.69345,-0.52071 2.17622,-1.40527 3.29504,-1.96569 9.3385,-4.67769 17.34187,-3.17631 26.81861,5.03101 1.44264,1.2494 2.7916,2.26827 2.99769,2.26416 0.2061,-0.004 1.97661,-1.44646 3.93448,-3.20523 4.1156,-3.69707 6.31995,-5.24572 8.3195,-5.8448 3.15512,-0.94529 6.60881,1.43351 9.75132,6.71642 2.40044,4.03542 3.07879,7.67663 3.05444,16.39537 -0.0163,5.83229 -0.10392,6.65365 -1.03783,9.72856 -0.56102,1.84715 -1.62779,4.515 -2.37059,5.92856 -2.37454,4.51875 -8.10806,9.85105 -13.59501,12.64363 -0.92741,0.47201 -3.54103,1.23654 -5.80803,1.69895 -2.26701,0.46242 -7.96533,1.70448 -12.66293,2.76013 -12.11245,2.72193 -16.38847,3.38887 -24.10811,3.76018 -9.03955,0.43481 -17.18824,-0.0351 -21.90733,-1.2634 -7.52031,-1.95736 -13.95232,-5.24542 -19.77158,-10.10727 -0.89209,-0.74532 -1.84822,-1.35513 -2.12473,-1.35513 -0.27651,0 -1.37654,1.55006 -2.44451,3.44457 -5.95432,10.56254 -12.517,18.64975 -18.44225,22.72643 -2.22153,1.52845 -7.35736,3.96653 -9.87043,4.68568 l -1.91594,0.54828 z"
         id="path1046" />
      <path
         style="fill:#8a4946;fill-opacity:1;stroke:none;stroke-width:0.0435967;stroke-miterlimit:4;stroke-dasharray:none;stroke-opacity:1"
         d="m 449.92844,634.64356 c -4.65183,-0.76296 -10.36842,-2.29108 -13.66164,-6.78756 l -2.17109,-1.93819 0.31012,-4.97367 c 0.6317,-10.13108 4.44367,-16.24987 9.72487,-21.29521 5.6747,-5.42127 14.00396,-8.48103 24.35714,-9.34445 l 3.37914,-0.2818 2.66357,2.49413 c 4.95208,4.63706 7.08737,9.24909 7.06781,15.26585 -0.0138,4.23981 -0.54553,6.46339 -2.45761,10.27661 -3.91463,7.8069 -10.81423,14.78189 -19.26055,16.25904 -3.92769,0.68691 -6.66545,0.86424 -9.95176,0.32525 z"
         id="path1050"
         sodipodi:nodetypes="sscssscsssss" />
      <path
         style="fill:#945350;fill-opacity:1;stroke:#be6561;stroke-width:0.0152456;stroke-miterlimit:4;stroke-dasharray:none;stroke-opacity:1"
         d="m 467.06263,660.40809 c -1.89978,-4.73667 -5.54071,-12.23552 -7.89302,-17.51461 -1.6718,-3.75187 -2.58226,-6.89415 -2.58226,-6.98285 0,-0.0887 0.19826,-0.16127 0.44059,-0.16127 0.73039,0 3.04897,-0.88728 4.59047,-1.39161 7.70764,-2.52164 13.6356,-8.78107 18.1338,-15.1018 0.63394,-0.89079 1.11056,-2.47848 1.38961,-3.33051 0.38678,-1.18093 0.0639,-2.08677 0.21108,-1.94711 1.75118,1.66193 12.62677,16.92588 15.76872,21.51332 3.00398,4.38601 5.04047,5.53656 4.97538,5.74165 -0.23176,0.73019 -5.9601,5.52071 -8.99635,7.64203 -6.33871,4.42861 -14.7017,8.40726 -22.69418,10.79663 -3.17458,0.94904 -3.25164,0.96601 -3.34384,0.73613 z"
         id="path1052"
         sodipodi:nodetypes="sssssssssssss" />
      <path
         style="fill:#965350;fill-opacity:1;stroke:#be6561;stroke-width:0.107177;stroke-miterlimit:4;stroke-dasharray:none;stroke-opacity:1"
         d="m 427.28803,900.50462 c -1.49588,-5.82393 -1.10674,-16.49409 0.27742,-21.70969 2.31567,-8.72556 13.16083,-18.98454 21.96702,-22.45495 9.06408,-3.57204 22.68926,-4.11556 30.50609,-0.56217 3.26423,1.48385 9.24184,3.65558 10.07954,6.05828 1.01197,2.90252 -2.56414,8.68424 -7.4395,20.92794 l -8.78809,22.06996 -6.51524,0.39767 c -3.43108,0.20942 -12.64717,1.31521 -21.28276,1.31839 l -17.05437,0.76828 z"
         id="path1054"
         sodipodi:nodetypes="sssssscsscs" />
      <path
         style="fill:#772f2b;fill-opacity:1;stroke:#be6561;stroke-width:0.0152456;stroke-miterlimit:4;stroke-dasharray:none;stroke-opacity:1"
         d="m 427.01081,907.32556 c 0,-0.074 -0.32587,-0.25707 -0.72416,-0.4067 -2.81874,-1.05895 -5.93235,-3.06141 -8.0484,-5.17617 -3.0718,-3.06995 -4.98035,-6.73008 -5.80611,-11.13472 -0.38552,-2.05633 -0.38531,-6.66438 3.8e-4,-8.76624 0.82951,-4.52042 2.46868,-8.96138 4.81128,-13.03502 l 1.05207,-1.82947 7.55906,-0.0395 c 7.04735,-0.0369 7.95475,0.006 7.4025,0.34698 -0.0861,0.0532 -0.67415,0.82744 -1.30678,1.7205 -3.51849,4.96695 -5.62664,10.47032 -6.49406,16.95288 -0.2879,2.15153 -0.24118,8.16434 0.0817,10.51948 0.4645,3.38788 0.99634,5.86874 1.95488,9.119 0.25504,0.86482 0.43951,1.59268 0.40992,1.61746 -0.16056,0.13447 -0.89231,0.22596 -0.89231,0.11156 z"
         id="path1056" />
      <path
         style="fill:#772f2b;fill-opacity:1;stroke:#772f2b;stroke-width:0.16239;stroke-miterlimit:4;stroke-dasharray:none;stroke-opacity:1"
         d="m 400.76944,654.18064 c -4.82974,-2.23974 -14.19153,-9.50837 -20.73962,-14.22911 -18.02681,-12.99614 -14.60886,-9.57788 -6.62027,-19.15596 2.84045,-3.40561 4.12236,-6.45969 5.84284,-6.46998 0.56067,-0.003 1.16793,0.78592 1.89087,1.37435 7.09381,5.77387 16.50195,10.84021 33.57234,11.60992 6.71077,0.30259 12.37617,-0.85714 15.38636,-1.17776 0.88467,-0.0942 1.69932,-0.51358 2.4969,-0.30686 1.70102,0.44089 2.65451,2.34182 5.32361,4.6849 2.74028,2.40556 7.55361,4.24435 9.62784,4.74376 6.40802,1.54286 6.65254,-0.20804 6.77881,0.70481 0.18871,1.36421 -5.69259,4.82048 -12.55092,9.1057 -9.39223,5.86846 -8.35645,6.22323 -14.72591,9.68273 -0.30651,0.16648 -0.70325,0.0452 -1.09165,0.0949 -2.40346,0.30697 -9.73036,-0.0975 -10.85172,0.40182 -0.77003,0.34287 -1.64848,2.2102 -1.82538,2.73065 -0.29773,0.87592 -7.68436,-1.55407 -12.5141,-3.79382 z"
         id="path1058"
         sodipodi:nodetypes="ssssssssssssssssss" />
      <path
         style="font-variation-settings:normal;opacity:1;vector-effect:none;fill:none;fill-opacity:1;stroke:#772f2b;stroke-width:1.056;stroke-linecap:butt;stroke-linejoin:round;stroke-miterlimit:4;stroke-dasharray:none;stroke-dashoffset:0;stroke-opacity:1;stop-color:#000000;stop-opacity:1"
         d="m 365.79134,629.79727 12.98825,-16.16904"
         id="path1060" />
      <path
         style="fill:#7700ff;fill-opacity:0.931727;stroke:#6300d2;stroke-width:0.0328878;stroke-miterlimit:4;stroke-dasharray:none;stroke-opacity:1"
         d="m 422.19436,820.11347 c -7.86081,-41.55788 -14.05158,-66.89571 -24.21657,-99.11439 l -2.58339,-8.18826 8.3568,-14.52256 c 4.59623,-7.98741 8.64564,-15.00587 8.99867,-15.59657 l 0.64185,-1.07401 4.78748,4.30345 c 2.63312,2.36689 4.93485,4.30484 5.11496,4.30656 0.18012,0.002 2.43659,-2.54719 5.01438,-5.66422 3.87048,-4.68014 4.75984,-5.58974 5.10563,-5.22184 0.352,0.37452 17.64254,25.26608 20.99023,30.21764 l 1.07553,1.59082 -2.1109,6.03472 c -10.00339,28.59798 -16.4258,58.33265 -20.97846,97.12663 l -0.88517,7.54264 h -4.49089 -4.49091 z"
         id="path1062" />
      <path
         style="fill:#7700ff;fill-opacity:1;stroke:#6300d2;stroke-width:0.0341782;stroke-miterlimit:4;stroke-dasharray:none;stroke-opacity:1"
         d="m 427.393,854.24289 c 0,-1.21348 -2.29736,-17.11243 -3.51613,-24.33348 -0.76934,-4.55822 -1.39878,-8.33901 -1.39878,-8.40179 0,-0.0627 2.07031,-0.11413 4.60071,-0.11413 h 4.60073 l -0.16489,1.41416 c -0.0907,0.7778 -0.85709,8.26453 -1.70313,16.63722 -1.13227,11.20533 -1.65441,15.22305 -1.97839,15.22305 -0.24207,0 -0.44012,-0.19127 -0.44012,-0.42503 z"
         id="path1064" />
      <path
         style="font-variation-settings:normal;opacity:1;vector-effect:none;fill:none;fill-opacity:1;stroke:#9e0da4;stroke-width:1.056;stroke-linecap:butt;stroke-linejoin:round;stroke-miterlimit:4;stroke-dasharray:none;stroke-dashoffset:0;stroke-opacity:1;stop-color:#000000;stop-opacity:1"
         d="m 359.51131,636.15886 5.87224,-6.52471"
         id="path1066" />
      <path
         style="fill:#9e0da4;fill-opacity:1;stroke:#6300d2;stroke-width:0.0335645;stroke-miterlimit:4;stroke-dasharray:none;stroke-opacity:1"
         d="m 392.81523,706.22001 c -8.63234,-24.49725 -20.50653,-50.50494 -30.52815,-66.86491 -1.16612,-1.90367 -2.12023,-3.57646 -2.12023,-3.71732 0,-0.31472 4.92415,-5.91813 5.32187,-6.05598 0.32416,-0.11235 2.09291,1.2191 11.59212,8.72612 14.69921,11.61645 22.34818,16.31572 32.04961,19.69016 l 3.54553,1.23325 -1.61643,2.06506 c -6.29323,8.03989 -8.41266,10.86277 -8.41266,11.20484 0,0.21567 2.33305,2.46598 5.18457,5.00071 2.85151,2.53472 5.18457,4.7032 5.18457,4.81884 0,0.36842 -17.49546,30.38273 -17.71021,30.38273 -0.11325,0 -1.23402,-2.91757 -2.49059,-6.4835 z"
         id="path1068" />
      <path
         style="fill:#9e0da4;fill-opacity:1;stroke:#6300d2;stroke-width:0.0333091;stroke-miterlimit:4;stroke-dasharray:none;stroke-opacity:1"
         d="m 444.65185,694.81874 c -6.09065,-8.56081 -11.12316,-15.69102 -11.18336,-15.84488 -0.0602,-0.15387 1.63864,-2.3036 3.77519,-4.77718 2.13656,-2.47358 3.88465,-4.67002 3.88465,-4.88098 0,-0.21095 -3.08291,-3.43489 -6.85092,-7.16432 l -6.85094,-6.78076 13.66801,-9.23716 c 7.51739,-5.08045 13.80923,-9.28276 13.98184,-9.33848 0.17262,-0.0557 1.61427,2.78697 3.20367,6.31708 l 2.88979,6.4184 -2.30514,1.55181 c -3.98119,2.68015 -5.99127,5.4444 -5.99127,8.23916 0,1.17195 0.5906,3.41953 5.5453,21.10342 l 4.14802,14.80476 -2.27779,5.19826 c -1.25279,2.85903 -2.7026,6.27691 -3.22182,7.5953 -0.5192,1.31837 -1.03341,2.38886 -1.14267,2.37887 -0.10928,-0.0101 -5.18192,-7.02248 -11.27256,-15.5833 z"
         id="path1070" />
    </g>
  </g>
</svg>
